<?xml version="1.0" encoding="UTF-8" standalone="no"?>
<!-- Created with Inkscape (http://www.inkscape.org/) -->

<svg
   xmlns:dc="http://purl.org/dc/elements/1.1/"
   xmlns:cc="http://creativecommons.org/ns#"
   xmlns:rdf="http://www.w3.org/1999/02/22-rdf-syntax-ns#"
   xmlns:svg="http://www.w3.org/2000/svg"
   xmlns="http://www.w3.org/2000/svg"
   xmlns:sodipodi="http://sodipodi.sourceforge.net/DTD/sodipodi-0.dtd"
   xmlns:inkscape="http://www.inkscape.org/namespaces/inkscape"
   width="68.771362mm"
   height="62.65382mm"
   viewBox="0 0 243.67806 222.00172"
   id="svg9668"
   version="1.1"
   inkscape:version="0.91 r13725"
   sodipodi:docname="goat.svg">
  <defs
     id="defs9670" />
  <sodipodi:namedview
     id="base"
     pagecolor="#ffffff"
     bordercolor="#666666"
     borderopacity="1.0"
     inkscape:pageopacity="0.0"
     inkscape:pageshadow="2"
     inkscape:zoom="0.7"
     inkscape:cx="14.946881"
     inkscape:cy="-80.707096"
     inkscape:document-units="px"
     inkscape:current-layer="layer1"
     showgrid="false"
     fit-margin-top="0"
     fit-margin-left="0"
     fit-margin-right="0"
     fit-margin-bottom="0"
     inkscape:window-width="1440"
     inkscape:window-height="851"
     inkscape:window-x="0"
     inkscape:window-y="1"
     inkscape:window-maximized="1" />
  <metadata
     id="metadata9673">
    <rdf:RDF>
      <cc:Work
         rdf:about="">
        <dc:format>image/svg+xml</dc:format>
        <dc:type
           rdf:resource="http://purl.org/dc/dcmitype/StillImage" />
        <dc:title></dc:title>
      </cc:Work>
    </rdf:RDF>
  </metadata>
  <g
     inkscape:label="Layer 1"
     inkscape:groupmode="layer"
     id="layer1"
     transform="translate(-1.0180699,-1.3613367)">
    <path
       id="path20244-7-5"
       d="M 34.6088,1.37655 C 23.0609,2.12099 22.2355,32.70009 28.0592,26.7532 40.9404,13.59971 41.6331,34.95314 37.6282,47.13445 34.3774,57.02202 2.0635,36.55415 1.2394,43.24914 c -3.2779,26.63105 30.974,16.76969 28.6626,19.40437 -8.5041,9.69327 -56.8807,66.89616 1.3321,88.56296 0.9287,0.34567 -0.1983,10.82528 2.6642,11.01209 5.3779,0.35109 4.8692,6.83984 6.7493,11.85576 0.9556,2.54887 5.1996,-3.94626 8.3701,4.26274 1.6851,4.36283 -4.8622,9.9242 -4.8622,9.9242 6.7509,0.80716 21.8061,3.5268 15.7633,-38.3869 11.7601,0.21449 25.2016,-15.78603 28.5071,-38.85315 3.9835,8.19231 10.7871,19.27184 9.9464,28.35171 -1.0523,12.03892 4.6469,39.69343 27.5969,52.0854 l 0.1776,19.09354 c -11.1554,-2.74584 -17.0456,1.6044 -16.8734,10.7679 l 22.0686,0.089 -0.022,-28.66248 4.6624,0.31083 -0.5107,30.17225 17.8677,0.1237 c -3.464,-12.39565 -4.6668,-11.79108 -11.6512,-12.49011 l -1.2211,-17.02878 c 8.8125,0.6383 17.63,0.84204 26.4424,0.31083 l -0.2665,12.49961 c -8.2256,2.35148 -9.2521,3.62878 -10.8788,12.76605 l 15.852,-0.7549 -0.5328,-24.79938 4.729,0.0888 0.067,25.28778 21.9354,-0.6438 c -1.1005,-16.87733 -14.8683,-4.4192 -16.7624,-11.07867 0,0 -1.549,-13.71124 -0.067,-14.54218 7.4947,-4.20091 20.4453,-12.05812 24.8882,-21.69115 12.9331,-28.04123 2.5971,-56.12327 4.3072,-62.32045 3.0281,-10.97426 29.8716,5.89048 19.4709,23.17867 -4.0583,6.74591 17.7848,-19.40288 14.4978,-25.28784 -5.1471,-9.21501 0.8706,-10.78177 0.5328,-11.03429 -21.0875,-15.77029 -41.9544,0.57735 -39.8078,10.39044 0,0 -46.6098,-0.77369 -62.0984,1.70955 C 110.5769,113.08555 82.3995,86.91556 83.3197,65.5844 83.9688,50.53743 104.4057,97.25868 123.505,50.95342 128.7314,38.28227 81.2194,61.55543 80.5223,47.13472 79.9887,36.09687 79.9563,26.33113 82.5426,21.93567 85.3374,17.1859 91.6269,35.14726 92.9774,30.50556 95.3498,22.35206 94.2559,8.32888 87.3604,4.57387 66.7814,-6.63271 65.203,37.92097 65.203,37.92097 L 53.4804,37.38812 C 49.1166,25.82937 51.4716,0.64833 34.6089,1.37681 Z m 29.5061,47.09 C 79.8694,48.39515 74.8147,88.23339 52.903,67.5823 45.8915,78.5985 32.7063,74.87884 31.6559,61.18818 c -0.9858,-5.71308 8.3908,-19.46192 19.915,-6.61613 5.097,-4.34897 9.2742,-6.09069 12.544,-6.1055 z"
       style="fill:#000000;fill-opacity:1;stroke:none"
       inkscape:connector-curvature="0"
       sodipodi:nodetypes="csssscccccccccccccccccccccccccccsssscccssssssscccscccs" />
    <path
       style="display:inline;fill:#000000;fill-opacity:1;stroke:none"
       d="m 46.2239,61.49897 c 1.1519,-2.42745 -3.3234,-4.50436 -4.2168,-0.27383 -1.0305,3.87293 3.0647,4.61523 4.2168,0.27383 z"
       inkscape:connector-curvature="0"
       sodipodi:nodetypes="ccc"
       id="path20248-3-0" />
    <path
       style="display:inline;fill:#000000;fill-opacity:1;stroke:none"
       d="m 61.3908,61.28458 c -0.5816,-2.58936 3.3471,-4.53653 4.2468,-0.27807 1.0378,3.90094 -3.0865,4.64898 -4.2468,0.27807 z"
       inkscape:connector-curvature="0"
       sodipodi:nodetypes="ccc"
       id="path20250-9-2" />
  </g>
</svg>
