<?xml version="1.0" encoding="UTF-8" standalone="no"?>
<svg
   xmlns:dc="http://purl.org/dc/elements/1.1/"
   xmlns:cc="http://creativecommons.org/ns#"
   xmlns:rdf="http://www.w3.org/1999/02/22-rdf-syntax-ns#"
   xmlns:svg="http://www.w3.org/2000/svg"
   xmlns="http://www.w3.org/2000/svg"
   xmlns:sodipodi="http://sodipodi.sourceforge.net/DTD/sodipodi-0.dtd"
   xmlns:inkscape="http://www.inkscape.org/namespaces/inkscape"
   id="svg2"
   height="400"
   width="182.75"
   version="1.1"
   inkscape:version="0.91 r13725"
   sodipodi:docname="statueOfLiberty.svg">
  <metadata
     id="metadata4158">
    <rdf:RDF>
      <cc:Work
         rdf:about="">
        <dc:format>image/svg+xml</dc:format>
        <dc:type
           rdf:resource="http://purl.org/dc/dcmitype/StillImage" />
        <dc:title></dc:title>
      </cc:Work>
    </rdf:RDF>
  </metadata>
  <defs
     id="defs4156" />
  <sodipodi:namedview
     pagecolor="#ffffff"
     bordercolor="#666666"
     borderopacity="1"
     objecttolerance="10"
     gridtolerance="10"
     guidetolerance="10"
     inkscape:pageopacity="0"
     inkscape:pageshadow="2"
     inkscape:window-width="684"
     inkscape:window-height="480"
     id="namedview4154"
     showgrid="false"
     inkscape:zoom="0.51700887"
     inkscape:cx="134.84723"
     inkscape:cy="270.39708"
     inkscape:window-x="0"
     inkscape:window-y="0"
     inkscape:window-maximized="0"
     inkscape:current-layer="svg2" />
  <g
     id="g5"
     transform="translate(-50.153,0.89001)">
    <title
       id="title7">Layer 1</title>
    <g
       id="g2292">
      <path
         id="path2249"
         d="m 60.255,108.25 c 0.368,-1.475 1.473,-3.87 2.395,-4.054 0.921,-0.185 -0.737,-6.081 -0.737,-6.081 0,0 15.294,-2.21 16.584,2.211 1.289,4.423 -0.185,4.422 -0.185,4.791 0,0.368 7.555,9.029 4.976,29.482 -2.581,20.452 7.554,53.067 5.711,65.597 -1.842,12.529 -2.948,14.372 -4.79,21.373 -1.843,7.003 -4.976,-28.007 -7.187,-30.218 -2.211,-2.211 -3.316,-10.318 -1.105,-10.871 2.211,-0.55299 4.054,-5.528 5.16,-6.451 1.105,-0.92 -4.054,-26.16 -4.423,-27.27 0,0 -2.763,6.818 -5.527,2.764 -2.764,-4.05 1.474,-10.68 1.105,-12.16 -0.369,-1.47 -0.553,-10.87 0.184,-11.79 0.738,-0.92 0.922,-5.896 0.369,-6.08 -0.55299,-0.185 -4.054,0.921 -5.896,1.105 -1.842,0.184 -3.869,-4.975 -2.395,-4.975 1.473,0 -1.66,-4.422 -1.843,-5.528 -0.186,-1.103 -2.396,-1.84 -2.396,-1.84 z"
         inkscape:connector-curvature="0" />
      <path
         id="path2251"
         d="m 69.283,207.94 c 1.116,0.107 1.659,20.269 1.659,20.269 0,0 1.842,8.844 2.948,10.503 1.105,1.658 -1.474,5.159 -4.975,5.527 -3.5,0.369 -5.159,-0.18401 -5.159,-0.18401 -0.369,-0.18499 -1.106,9.766 -1.291,10.318 -0.185,0.55 -7.186,-4.79 -7.001,-11.79 0.183,-7 8.107,-35.2 13.819,-34.64 z"
         inkscape:connector-curvature="0" />
      <path
         id="path2253"
         d="m 180.48,329.96 c -0.569,-0.57001 16.032,-23.908 16.032,-23.908 l 3.315,0.82898 0.553,-5.251 32.339,13.542 -3.594,2.902 2.211,2.626 -4.976,6.633 c 0,0 7.188,7.048 6.496,11.056 -0.68998,4.008 -21.144,25.013 -23.079,25.428 -1.935,0.41501 -12.437,20.039 -12.437,20.039 l -7.878,-1.105 c 0,0 -4.146,-25.151 -7.463,-28.054 -3.316,-2.901 -2.764,-5.251 -2.073,-8.153 0.693,-2.903 0.969,-16.169 0.554,-16.584 z"
         inkscape:connector-curvature="0" />
      <path
         id="path2255"
         d="m 150.17,273.35 c -0.736,0.736 -31.693,73.335 -32.798,76.652 -1.105,3.316 -7.739,31.692 -18.426,49.013 -10.687,17.321 -12.53,26.533 -12.898,32.799 -0.368,6.266 2.211,15.109 1.843,18.794 -0.369,3.686 -10.688,16.216 -11.056,23.218 -0.369,7.001 1.105,7.37 1.105,7.37 0,0 13.267,-7.738 18.426,-11.424 5.159,-3.686 28.376,-41.643 30.22,-58.595 1.842,-16.953 9.95,-40.537 11.055,-43.118 1.105,-2.58 12.162,-46.802 11.793,-51.225 -0.37,-4.422 1.474,-39.063 1.474,-39.063 l -0.73801,-4.421 z"
         inkscape:connector-curvature="0" />
      <path
         id="path2261"
         d="m 160.58,359.12 c 0,0.82901 -1.381,121.61 -1.381,123.82 0,2.211 34.272,-18.242 37.037,-22.112 2.763,-3.869 -14.097,-79.325 -15.756,-90.656 -1.658,-11.333 -5.804,-33.444 -7.462,-35.379 -1.658,-1.934 -2.488,15.755 -5.527,16.584 -3.041,0.82901 -6.911,7.739 -6.911,7.739 z"
         inkscape:connector-curvature="0" />
      <path
         id="path2263"
         d="m 153.67,272.61 c 0,0 20.177,19.348 24.047,43.117 3.869,23.771 0.22901,8.247 -0.27598,9.121 -0.87902,1.517 -3.87,-9.121 -8.292,-5.527 -4.423,3.593 -6.357,4.146 -6.357,5.251 0,1.105 -0.55299,-24.046 -0.55299,-24.046 l -8.569,-27.916 z"
         inkscape:connector-curvature="0" />
      <path
         id="path2265"
         d="m 64.953,258.52 c 0,0 20.176,-9.121 22.387,-11.608 2.211,-2.488 -18.794,24.599 -21.835,24.322 -3.04,-0.276 -5.804,-1.106 -4.974,-2.211 0.829,-1.106 1.105,-6.08 1.935,-6.357 0.828,-0.27701 2.487,-4.146 2.487,-4.146 z"
         inkscape:connector-curvature="0" />
      <path
         id="path2267"
         d="m 139.3,267.08 c -0.276,0.828 -23.494,25.98 -32.891,32.061 -9.397,6.081 -21.006,21.835 -24.046,27.916 -3.041,6.081 -12.162,20.453 -13.543,24.6 -1.382,4.145 -2.211,8.844 -1.659,12.437 0.55299,3.594 2.005,6.231 3.041,7.187 1.199,1.105 5.712,1.842 7.094,1.29 1.382,-0.55301 3.686,-1.842 3.686,-1.842 0,0 9.121,-48.092 11.608,-48.645 2.487,-0.55301 2.21,8.015 -0.829,14.372 -3.041,6.357 -2.488,7.462 -2.764,8.568 -0.276,1.105 0.553,2.211 0.553,2.211 0,0 36.207,-55.002 38.142,-59.701 1.934,-4.7 11.608,-20.454 11.608,-20.454 z"
         inkscape:connector-curvature="0" />
      <path
         id="path2269"
         d="m 122.72,319.32 c -0.829,0.82901 -49.197,74.625 -49.75,82.641 -0.553,8.016 1.659,8.568 3.04,9.674 1.382,1.106 6.081,0 6.91,-0.55301 0.83,-0.55298 4.146,-9.95 4.146,-9.95 l 35.654,-81.81 z"
         inkscape:connector-curvature="0" />
      <path
         id="path2271"
         d="m 86.511,293.07 c -1.106,2.48 -16.307,12.71 -15.478,14.92 0.829,2.211 1.382,4.423 2.488,4.423 1.105,0 1.657,0.276 1.934,1.382 0.27699,1.105 0,1.381 0.55299,3.04 0.553,1.658 2.211,5.528 2.211,5.528 l 8.292,-29.298 z"
         inkscape:connector-curvature="0" />
      <path
         id="path2273"
         d="m 146.67,224.06 c 0.645,-0.092 4.791,0.093 3.869,-1.842 -0.79698,-1.675 -2.282,-7.349 -1.89,-10.279 l 28.423,-1.052 c 0,0 -20.293,-4.008 -27.21,-5.309 -0.007,-1.179 -0.1,-2.378 -0.24399,-3.465 l 25.43,-10.21 c 0,0 -21.837,3.591 -27.452,4.431 -1.042,-1.969 -2.121,-3.603 -2.121,-3.603 -0.26801,-0.244 -0.53501,-0.479 -0.80301,-0.707 l 18.584,-19.469 c 0,0 -18.997,13.208 -23.423,16.181 -2.448,-1.28 -4.895,-2.023 -7.269,-2.369 l 0.657,-25.789 c 0,0.467 -5.405,19.785 -7.07,25.73 -3.37,0.405 -6.41,1.423 -8.861,2.513 l -17.973,-18.47 12.543,21.48 c -0.487,0.33301 -0.75,0.53801 -0.75,0.53801 -1.551,1.105 -2.883,2.239 -4.029,3.386 l -21.584,-0.34601 0.369,2.948 16.726,3.616 c -0.61698,1.291 -1.052,2.566 -1.348,3.808 l -7.086,0.86699 0.06001,0.199 c -1.697,-2.762 -3.191,-4.437 -3.191,-4.437 0,0 1.289,7.187 0.18401,14.557 -1.106,7.371 -20.084,29.851 -20.084,29.851 0,0 -0.922,2.026 5.712,1.29 6.633,-0.737 18.242,-8.292 21.559,-21.006 1.6,-6.134 -0.062,-12.091 -2.208,-16.62 l 4.565,0.726 c 0.27,5.398 2.617,9.261 2.617,9.261 0,-0.368 6.081,-7.187 7.831,-6.726 1.75,0.461 10.688,-4.053 11.147,-3.592 0.461,0.461 4.239,3.5 4.239,3.5 0,0 3.684,1.75 3.684,2.119 0,0.369 0.185,9.214 -0.276,9.306 -0.461,0.092 -1.842,0.461 -1.842,0.461 0,0 -0.64601,4.605 -1.29,4.422 -0.644,-0.18401 -0.828,1.105 -1.198,1.474 -0.368,0.368 3.224,3.041 3.224,3.041 0,0 1.199,3.686 0,3.778 -1.197,0.092 -1.935,4.975 -1.105,5.896 0.829,0.92101 2.396,0.92101 2.857,0.83 0.46,-0.092 1.75,1.014 5.527,-0.645 3.777,-1.658 9.582,-18.426 9.582,-18.426 0,0 0.27402,-1.753 0.92,-1.845 z m 4.238,33.167 c 0.092,-0.276 -3.225,-12.714 -2.764,-12.991 0.461,-0.27501 1.659,-1.104 2.488,-3.04 0.82999,-1.935 -1.75,-6.173 -1.75,-6.357 0,-0.18401 -2.027,-7.646 -2.027,-7.646 0,0.45999 -7.922,17.873 -7.922,17.873 0,0 0.36799,8.476 0.55299,9.305 0.18399,0.83 3.316,0.276 3.316,0.645 0,0.369 0.36902,6.634 0.55301,6.634 0.185,0 1.014,1.013 2.12,0.092 1.105,-0.92102 6.265,-0.553 6.265,-0.553 0,0 -0.92499,-3.686 -0.83199,-3.962 z M 71.03,288.92 c -3.594,1.935 -3.041,2.211 -2.488,3.041 0.553,0.82901 1.105,2.488 1.105,2.488 0,0 -1.382,-1.382 -2.211,2.763 -0.829,4.146 -1.105,5.252 -0.27599,5.528 0.829,0.276 17.965,-9.95 20.729,-16.859 2.764,-6.911 12.714,-34.273 12.714,-34.273 -0.275,1.104 -25.98,35.377 -29.573,37.312 z m 19.625,-32.89 9.393,-22.94 c -0.276,1.105 -14.373,17.689 -16.031,25.98 -1.658,8.292 -3.316,9.95 -4.422,11.885 -1.105,1.935 11.056,-14.924 11.056,-14.924 z m 35.931,3.316 c -1.106,-0.276 -3.317,-2.21 -5.804,-4.421 -2.488,-2.212 -9.397,-11.885 -9.397,-11.885 -1.935,-4.975 -8.845,-9.674 -7.187,-7.462 1.658,2.211 -1.381,29.297 -1.934,30.956 -0.553,1.658 -11.885,34.272 -11.056,33.167 0.829,-1.105 3.316,-3.317 6.909,-5.527 3.594,-2.211 1.935,-5.805 2.488,-11.056 0.55301,-5.252 1.659,-4.423 3.593,-8.845 1.935,-4.423 6.357,-4.699 9.674,-5.805 3.317,-1.105 10.503,-2.763 11.608,-3.04 1.106,-0.27701 2.211,-5.806 1.106,-6.082 z"
         inkscape:connector-curvature="0" />
      <path
         id="path2275"
         d="m 58.042,95.446 c 0,0 13.129,-6.219 22.872,-0.207 0,0 6.219,1.451 10.71,-5.528 0,0 -0.691,-3.8 -10.917,-5.527 -10.227,-1.728 -18.38,-0.069 -18.38,-0.069 0,0 -8.844,1.728 -11.678,5.044 -2.833,3.316 7.393,6.287 7.393,6.287 z"
         inkscape:connector-curvature="0" />
      <path
         id="path2277"
         d="m 53.206,85.012 c 0,0 14.925,-9.674 35.516,-0.691 0,0 0.276,-5.736 1.589,-6.219 1.313,-0.484 -18.726,-8.224 -37.659,-0.55299 9.99e-4,9.99e-4 2.696,3.386 0.554,7.463 z"
         inkscape:connector-curvature="0" />
      <path
         id="path2279"
         d="m 64.654,67.208 c 0.004,0.012 1.479,0.766 1.858,0.996 3.113,2.301 12.499,-0.969 12.499,-0.969 0,0 12.769,-7.053 10.864,-23.635 0,0 0.148,5.036 -5.416,9.644 -0.522,-2.381 -1.227,-4.352 -2.612,-7.122 -0.66,-1.321 -1.236,-2.409 -1.73,-3.405 0.141,-0.158 0.281,-0.312 0.419,-0.451 C 83.014,39.788 95.207,29.304 83.298,1 c 0,0 1.715,20.014 -2.574,23.444 -4.289,3.431 -23.157,11.437 -22.586,27.447 0.572,16.01 3.057,13.021 6.538,15.339"
         inkscape:connector-curvature="0" />
    </g>
  </g>
</svg>
