
<svg id="svg2" xmlns:rdf="http://www.w3.org/1999/02/22-rdf-syntax-ns#" xmlns="http://www.w3.org/2000/svg" height="250" width="250" version="1.0" xmlns:cc="http://creativecommons.org/ns#" xmlns:dc="http://purl.org/dc/elements/1.1/" viewBox="0 0 600 600">
 <g>
  <path d="m331.28 20.21c2.23 1.71 3.39 4.31 4.88 6.6 8.19 13.2 16.35 26.41 24.53 39.62 5.93 10.15 12.94 19.6 19.57 29.29 20.84 29.5 39.86 60.22 59.88 90.27 6.48 12.2 13.27 24.24 19.52 36.56 3.55 9.12 7.63 18.08 10.38 27.48 2.48 11.19 6.93 21.97 7.73 33.49 1.51 9.4 0.66 18.94 0.88 28.41 0.38 11.76-1.17 23.46-2.18 35.15-1.67 7-3.11 14.06-5.05 21-2.07 6.19-4.79 12.15-7.12 18.25-2.55 7.01-6.52 13.38-9.98 19.97-4.78 9.52-11.53 17.84-17.43 26.66-4.71 4.61-8.67 9.91-13.55 14.37-6.24 6.85-13.98 12.03-21.23 17.72-7.82 4.93-15.81 9.61-23.76 14.32-6.5 2.91-13.19 5.38-19.8 8.02-9.46 2.61-19.07 4.67-28.61 6.94-10.21 1.25-20.35 3.67-30.66 3.66 2.35-2.57 4.31-5.47 6.86-7.86 4.6-3.98 5.87-10.23 8.66-15.4 1.85-4.14 4.82-7.98 5.07-12.66 0.72-7.69 2.66-15.28 2.26-23.05-0.29-7.42 1-15.11-1.86-22.2-1.85-10.26-6.91-19.44-11.04-28.88-11.78-19.76-24.29-39.08-36.49-58.58-6.82-12.2-13.8-24.31-20.39-36.63-3.38-8.49-6.61-17.04-9.75-25.61-5.36-20.97-10.09-42.41-9.53-64.18 1.07-11.13 2.43-22.23 3.79-33.33 2.05-12.96 4.31-25.88 6.41-38.83 0.22-1.64 0.78-3.21 1.48-4.71 0.92 13.29 2.62 26.55 5.9 39.48 3.42 10.9 7.75 21.5 11.95 32.13 3.75 7.49 6.62 15.46 11.27 22.48 8.76 12.16 16.85 24.87 26.56 36.32 3.1 2.98 5.67 6.42 8.67 9.5 9.25 11.04 20.59 20.15 29.82 31.22 3.32 3.24 6.69 6.5 9.3 10.38 4.12 6.57 8.56 12.93 12.82 19.42 5.5 9.67 10.42 19.65 15.32 29.63 3.56 7.56 5.91 15.83 10.93 22.62 0.72-7.98-1.23-15.82-1.98-23.72-1.46-12.72-5.78-24.81-10-36.82-1.82-4.96-4.51-9.52-6.75-14.29-5.06-11.62-11.17-22.75-17.02-33.99-4.18-9.91-9.66-19.21-13.84-29.11-4.77-9.07-8.71-18.51-13.43-27.6-5.27-12.25-11.11-24.27-15.75-36.78-2.48-7.39-5.7-14.53-7.81-22.04-1.91-9.7-4.26-19.31-6.06-29.03-2.45-18.59-5.69-37.24-4.66-56.07 1.49 2.86 2.27 5.99 3 9.11 1.4 6.03 3.67 11.81 5.56 17.7 1.44 4.14 2.2 8.53 4.23 12.45 4.66 9.08 8.93 18.35 13.98 27.22 1.91 4.75 5.46 8.49 8.27 12.7 7.27 9.85 13.75 20.24 20.65 30.34 12.6 17.03 26.5 33.1 38.34 50.68 6.67 9.11 12.52 18.77 18.61 28.27 3.6 6.08 8.15 11.66 10.65 18.33 3.74 7.93 8.12 15.55 11.35 23.71 4.13 10.36 8.57 20.64 11.5 31.42 1.37 4.88 2.74 9.76 4.32 14.58 0.24-6.52 2.82-12.74 2.45-19.3-0.19-11 0.41-22.03-0.62-33.01-2.24-18.64-9.88-36.01-17.24-53.1-5.25-13-12.58-25.03-18.08-37.91-10.74-21.19-20-43.07-30.71-64.27-5.17-9.24-9.88-18.73-15.06-27.97-2.85-5.74-5.02-11.78-7.61-17.64-3.36-8.52-7.41-16.78-9.96-25.6-3.22-11.38-7.71-22.4-9.94-34.04-0.86-4.41-2.55-8.7-2.4-13.26z"/>
  <path d="m450.57 162.4c12.74 4.72 26.19 8.01 37.78 15.34 12.31 7.8 21.23 20.11 26.43 33.58 2.53 5.91 3.54 12.38 6.67 18.04-18.41-12.04-35-26.93-48.64-44.21-2.54-3.11-4.53-6.68-7.55-9.38-4.91-4.44-9.84-8.86-14.69-13.37z"/>
  <path d="m112.2 185.23c12.6-10.24 28.41-15.04 43.5-20.3-13.95 11.05-24.45 25.57-35.43 39.4-9.73 11.08-22.58 18.67-33.9 27.94 5.22-9.82 6.18-21.36 12.02-30.89 3.95-5.89 8.18-11.74 13.81-16.15z"/>
  <path d="m505.38 186.16c12.03 2.46 22.61 9.88 30.26 19.33 5.5 6.79 9.59 14.88 10.87 23.59 2.75 17.48-2.6 35.29 1.33 52.69-8.18-14.17-22.29-23.15-35.3-32.38-8.41-6.09-17.21-12.14-23.28-20.74-5.59-7.82-8.65-17.11-10.55-26.45 2.73 4.81 6.03 9.33 10.28 12.92 9.81 8.49 21.86 13.82 32.02 21.83 3.74 2.91 6.94 6.43 10.23 9.81 3.49 3.6 4.82 8.68 8.2 12.34-0.98-3.05-2.55-5.85-3.73-8.81-4.71-11.42-7.42-23.51-10.91-35.33-1.6-5.36-3.05-10.89-6.2-15.59-3.33-5.36-8.05-9.67-13.22-13.21z"/>
  <path d="m75.15 205.2c6.96-7.67 16.11-13.41 26.23-15.77-5.77 3.83-10.72 8.97-13.79 15.23-5.93 11.83-6.77 25.32-11.05 37.71-2.12 6.82-5.63 13.16-7.13 20.17 4.42-8.23 9.84-16.05 17.12-22.05 10.18-8.33 22.38-13.89 32.13-22.79 4.08-3.74 7.45-8.24 9.62-13.35 0.29 0.15 0.88 0.44 1.18 0.58l-1.39 0.41c-0.05 11.95-6.54 22.81-14.25 31.51-8.24 9.24-18.28 16.62-28.62 23.33-8.92 6.78-17.53 14.48-23.11 24.34-0.53-6.51 1.01-13 0.34-19.51-1.36-13.24-2.58-26.9 0.99-39.92 2.01-7.54 6.1-14.47 11.73-19.89z"/>
  <path d="m548.78 218.63c3.62 2.22 5.91 5.87 8.47 9.15 17.36 20.86 22.1 51.38 12.18 76.59-3.75 8.26-7.38 16.63-9.66 25.44-1.33 4.39-1.92 8.95-3.2 13.36-2.66-15.59-12.49-28.46-22.48-40.18-8.1-9.77-16.82-19.32-22.25-30.92-3.41-7.5-6.19-15.31-7.84-23.39 10.17 15.58 27.97 23.53 39.8 37.55 3.7 4.32 6.19 9.51 8.23 14.79 1.69 4.64 1.52 9.81 3.78 14.26 0.24-3.11-0.42-6.17-0.74-9.24-1.96-18.3-0.93-36.79 1.71-54.96 0.53-11.24-1.29-23.13-8-32.45z"/>
  <path d="m51.96 229.99c2.24-2.83 4.33-5.84 7.14-8.14-3.17 5.25-6 10.83-6.83 16.99-3.06 19.84 5.35 39.35 3.12 59.22-0.46 6.77-1.44 13.53-1.42 20.32 1.96-2.12 1.68-5.23 2.36-7.86 1.37-8.58 5.81-16.33 11.37-22.88 7.56-8.8 16.71-16 25.68-23.29 4.31-3.48 7.92-7.82 10.52-12.71-1.37 10.07-4.91 19.76-9.51 28.79-9.56 16.32-23.55 29.54-32.98 45.95-3.62 6.2-6.2 12.98-7.63 20.01-2.06-21.72-17.3-39.66-18.92-61.46-0.25-8.2-0.31-16.54 1.72-24.55 2.69-11.15 8.39-21.36 15.38-30.39z"/>
  <path d="m145.52 244.4c1.45-3.91 2.72-7.88 4.46-11.67 0.61 5.55-0.98 10.97-1.84 16.4-2.81 15.96-3.35 32.58 0.56 48.41 2.76 9.29 6.09 18.4 9.72 27.39 1.91 6.9 6.96 12.17 10.36 18.32 3.22 5.87 8.31 10.27 12.53 15.37 5.87 6.61 13.36 11.35 20.3 16.71 7.29 5.92 16.28 9.06 24.38 13.64 4.47 2.73 9.47 4.41 14.25 6.52 2.93 0.17 2.01-3.28 0.93-4.81-7.48-11.99-13.78-24.67-21.2-36.7-1.38-2.29-2.84-4.56-3.84-7.06-3.8-10.74-7.36-21.59-9.81-32.73-2.17-18.3-1.25-36.75-1.43-55.13 0.15-3.84-0.46-7.75 0.48-11.51 2.16 10.03 1.98 20.48 4.54 30.47 4.22 19.43 10.97 38.32 20.24 55.91 7.3 11.17 14.87 22.2 23.49 32.41 7.34 7.32 14.65 14.68 22.01 21.99 6.66 4.99 11.42 11.9 17.02 17.96 6.5 13.18 9.66 28.06 8.96 42.77-1.39 6.37-2.58 12.9-6.06 18.55-1.39 3.93-4.46 6.71-7.33 9.57-3.75 5.46-9.92 8.36-14.6 12.91-1.5-2.74-1.47-6-2.96-8.73-1.74-3.73-4.69-6.66-7.5-9.57-8.06-4.41-16.14-8.84-24.6-12.46-14.43-8.34-29.42-15.9-42.52-26.31-6.55-5.45-13.68-10.26-19.4-16.63-3-3.46-7.18-5.69-9.87-9.44-5.21-6.72-11.11-12.94-15.59-20.2-3.21-5.47-7.37-10.44-9.56-16.45-3.65-8.65-8.62-16.98-9.86-26.42-2.64-11.43-1.9-23.25-2.02-34.89-0.57-9.58 2.9-18.71 4.41-28.06 2.13-12.65 7.52-24.37 11.35-36.53z"/>
  <path d="m580.32 284.46c13.13 26.57 9.51 59.44-5.31 84.56-10.52 13.8-23.07 25.97-33.2 40.09 0.97-10.63 2.28-21.73-1.27-32.04-8.04-21.37-15.14-43.31-17.95-66.06-0.79-4.74-0.52-9.54-0.23-14.3 5.04 19.18 21.06 32.67 28.3 50.82 3.12 7.44 3.64 15.63 3.13 23.6-0.43 4.87-2.31 9.44-3.01 14.26 0.99-0.92 1.95-1.93 2.14-3.33 3.21-11.4 5.25-23.17 9.71-34.19 5.85-13.51 13.85-26.26 17.12-40.78 1.76-7.41 1.83-15.14 0.57-22.63z"/>
  <path d="m29.41 287.93c-1.44 7.66-1.33 15.61 0.73 23.14 4.56 17.33 15.9 31.88 21.02 48.99 2.76 8.5 3.59 17.53 6.93 25.85 0.42 1.1 1.1 2.03 2.01 2.8-1.92-6.72-3.89-13.57-3.35-20.65 0.88-18.05 10.86-33.9 21.13-48.14 4.53-5.95 7.07-13.06 9.27-20.12 1.41 12.24-1.62 24.36-3.5 36.37-3.66 16.34-9.62 32.03-14.46 48.03-2.57 9.18-1.37 18.77-0.24 28.06-3.06-3.08-4.99-7.04-7.87-10.27-10.55-13.12-24.42-24-31.33-39.72-6.04-16.21-9.58-33.83-7.16-51.13 1.59-7.9 3.33-15.9 6.82-23.21z"/>
  <path d="m526.7 354.84c-2.43 21.12 9.12 41.12 6.13 62.21-1.3 10.32-6.11 19.7-11.76 28.26 2.25-1.09 3.56-3.3 5.1-5.16 7.96-10.01 15.24-20.66 24.57-29.5 11.41-10.22 23.59-20.2 31.39-33.62 3.3-5.51 5.21-11.7 6.31-17.99 2.05 13.48 0.2 27.51-5.53 39.9-8.46 18.61-23.75 33.3-40.77 44.21-14.14 8.48-28.6 16.46-42.35 25.58 2.43-4.91 5.5-9.51 7.22-14.74 10.03-26.95 5.38-56.65 13.81-83.96 1.56-5.22 3.96-10.11 5.88-15.19z"/>
  <path d="m84.09 370c0.38-3.75 0.04-7.53 0.12-11.29 13.44 28.18 10.03 60.31 16.99 90.08 1.66 8.08 6.7 14.81 10.04 22.2-22.05-13.4-45.9-24.52-64.92-42.3-12.73-11.81-22.06-27.8-24.03-45.21-0.73-6.85-0.79-13.8 0.13-20.64 0.39 8.1 4 15.65 8.68 22.14 13.03 17.8 32.85 29.3 45.51 47.44 4.1 5.33 7.72 11.22 13.09 15.43-1-2.1-2.3-4.02-3.61-5.92-6.8-10.62-9.62-23.53-8.59-36.04 0.84-12.2 5.5-23.73 6.59-35.89z"/>
  <path d="m494.3 423.32c4.49-5.74 8.83-11.64 14-16.78-9.42 18.02-7.52 39.22-14.64 57.97-5.01 12.98-14.96 23.2-25.38 32.05 6.07-1.64 10.16-6.66 15.21-10.04 16.85-11.99 36.83-18.19 54.9-27.98 13.26-6.96 25.37-17.14 32.15-30.72-2.46 15.58-11.41 29.33-22.25 40.45-13.42 13.58-30.04 24.04-48.19 29.98-18.17 5.12-37.28 5.98-55.36 11.54 11.4-8.85 19.27-21.4 24.5-34.69 7.16-17.76 12.16-37.05 25.06-51.78z"/>
  <path d="m102.08 409.22c10.57 11.55 20.86 23.67 27.83 37.8 7.24 15.87 11.34 33.29 21.3 47.85 4.23 6.32 9.68 11.73 15.69 16.35-22.65-6.55-47.14-5.55-68.94-15.18-19.45-9.54-37.3-23.48-48.8-42.07-4.23-6.88-7.38-14.45-8.96-22.38 4.33 8.03 10.22 15.26 17.58 20.7 20.83 15.82 47.64 20.78 68.73 36.19 5.27 4 10.79 7.8 17 10.2-5.23-4.83-11.09-9.02-15.66-14.53-4.16-5.11-7.97-10.61-10.34-16.8-7.38-18.77-5.72-40.13-15.43-58.13z"/>
  <path d="m415.77 503.68c17.23-14.79 33.45-31.12 53.06-42.82-10.52 12.52-14.61 29.16-25.62 41.34-5.21 5.88-12.13 9.93-19.31 12.93-5.21 2.02-10.79 2.88-15.94 5.07 5.76 0.04 11.44-1.12 17.09-2.17 22.52-4.21 45.71-2.98 68.14-7.81 13.07-2.76 25.69-8.68 34.98-18.44-7.68 14.64-21.33 25.2-35.81 32.61-15.43 7.9-33.03 11.29-50.3 9.8-23.78-1.68-46.56-9.53-70.2-12.2 15.53-3.34 31.61-7.71 43.91-18.31z"/>
  <path d="m142.19 462.9c18.58 11.13 34.44 26.01 50.88 39.96 13.07 11.56 30.25 16.83 47.09 19.96-4.17 1.07-8.52 1.06-12.74 1.84-21.94 4.76-43.8 11.37-66.45 11.36-18.01 0.18-35.99-5.08-51.16-14.76-10.61-6.74-20.13-15.55-26.56-26.43 7.66 7.29 17.04 12.69 27.23 15.55 24.59 7.24 50.62 4.46 75.66 8.87 5.99 0.8 11.91 2.79 18.02 2.2-3.4-1.61-7.14-2.16-10.77-3.01-8.53-2.38-16.79-6.4-23.02-12.81-12.21-12.26-17.37-29.43-28.18-42.73z"/>
  <path d="m215 537c17.02-6.69 34.52-13.01 52.89-14.5 10.2-0.96 20.49-0.05 30.52 1.91 3.14 0.71 6.22 2.25 9.52 1.92 6.91-3.08 14.57-3.63 22.02-4.22 20.92-1.22 42.07 2.91 61.07 11.71 12.49 4.21 24.63 10.03 37.85 11.62 18.06 2.33 37.1-0.43 52.98-9.65-12.69 13.72-30.39 22.39-48.74 25.38-25.14 3.71-50.51-5.13-71.26-18.96-8.34-4.88-16.17-11.5-26.01-12.98-5.91-0.5-11.93-0.36-17.76 0.86 23.12 9.75 44.63 23.21 63.57 39.65-3.55 3.47-7.54 6.43-11.53 9.37-18.55-17.77-38.47-34.94-62.16-45.45-4.59-0.29-8.83 2.6-12.94 4.45-19.48 10.91-37.72 24.52-52.15 41.67-4.03-2.99-8.05-5.98-12.09-8.96 15.74-14.23 33.36-26.42 52.47-35.67 3.62-1.9 7.52-3.23 11.07-5.28-11.13-3.38-22.97 0-32.6 5.89-14.1 8.64-27.76 18.6-43.77 23.43-17.63 5.53-37.19 6.09-54.58-0.62-12.1-4.45-24.09-10.65-32.6-20.56 17.54 9.93 38.8 11.8 58.35 7.9 9.03-1.67 17.34-5.7 25.88-8.91z"/>
 </g>
</svg>
